<svg width="512" height="293" viewBox="0 0 512 293" fill="none" xmlns="http://www.w3.org/2000/svg">
<path d="M127 292.2C127 291.6 127.5 290 128.1 288.8C128.9 286.9 132.5 285.2 146.8 280.2C156.5 276.8 164.8 274 165.2 274C165.6 274 165.5 275.1 164.8 276.5C164.1 278.1 162.1 279.5 158.8 280.6C154.9 281.9 137.6 288.7 128.3 292.7C127.6 293 127 292.7 127 292.2V292.2ZM321.1 292C315.1 290.6 309.8 285.9 306.2 279C304.3 275.4 302.7 272.4 302.5 272.2C302.3 272 298.6 273 294.1 274.4C270 282 249.6 278.9 236.7 265.7C230.8 259.7 225.6 250.1 223.9 241.9C221.8 232 224.4 210.3 228.6 203L230.1 200.5L229.6 203.5C229.3 205.2 228.3 209.9 227.4 214C222.8 235.4 232.7 253.1 253.1 260C258.7 261.9 261.1 262.2 272 261.8C280.8 261.5 287.1 260.6 293.1 259L301.7 256.7L302.4 250C303 242.8 307 227.8 309.6 222.8C310.8 220.5 311.2 216.1 311.3 204.1C311.5 188.1 307.2 119.9 305.9 117.9C305.4 117.1 302.9 117.7 297.5 119.9C293.3 121.7 289.6 122.9 289.3 122.7C289.1 122.4 292.8 120 297.5 117.4L306.2 112.5L305.6 106C305.3 102.4 304.6 91 304 80.5C303.4 70.1 302.5 59.4 301.9 56.9C301 53.1 301.2 51.5 303.1 46.4C304.3 43.2 305.6 40.1 306 39.7C306.7 38.9 318.6 68.7 319.7 74.1C320.4 77.9 318.9 77.8 315.5 73.9C314.1 72.2 312.7 70.9 312.5 71.1C311.8 71.9 314.4 107 315.2 107C316.5 107 326.8 100.3 331.8 96.2L336.1 92.7L333.1 90.2C328.6 86.7 327.7 84.6 329 80.5C330.4 76.3 336.2 71 339.6 71C343.3 71 344.5 74.5 343.1 81.1C341.9 86.3 342 86.6 344.4 88.5C346.8 90.4 346.8 90.6 345.3 93.7C343.8 96.8 343.7 96.9 341.4 95.3C339.1 93.8 338.8 93.9 333.1 99.3C329.8 102.3 324.4 106.4 321.1 108.5C317.5 110.6 315 112.8 315 113.8C315 114.7 315.9 127.7 317 142.5C320.2 186.8 319.5 201.3 313.5 216.3C310.2 224.8 306.4 239.7 305.5 248.3L304.8 255.2L307.2 254.5C311.6 253.1 327.5 244.8 334.3 240.2C341.6 235.4 352.4 225.9 354.1 222.9C354.8 221.5 353.9 218.8 350.1 211.2C347.4 205.8 343.7 197.1 341.9 191.9C340.1 186.7 338 181.7 337.1 180.7C335.8 179.2 335.8 177.9 336.8 171.8C337.5 167.8 338.3 164.4 338.6 164.1C339.2 163.5 356 180.1 356 181.4C356 181.9 354 182 351.6 181.7L347.1 181.1L348.7 184.8C349.5 186.8 351.7 191.5 353.5 195.1C360.5 209 361.4 218.4 356.9 230.5C353.5 239.6 337.4 253.5 317.7 264.4L310.8 268.2L313.6 271.1C319.5 277.2 328.8 278.4 340.7 274.4C354.5 269.8 376.9 255.6 389.5 243.7L397 236.5L396.4 231.5C395.6 224.4 393.3 216.6 389.8 208.6L386.8 201.7L388.5 195.3C389.5 191.8 390.6 188.7 391.1 188.5C391.5 188.2 392.8 189.7 394 192C397.1 198.1 399.7 199.4 408.1 198.8C412 198.5 415.6 197.8 416.2 197.2C416.8 196.6 416.8 195 416.1 192.4C413.2 182.1 415.7 171.4 423.5 160.6C428.8 153.2 433.8 149 437.5 149C442.8 149 448 159.7 448 170.6C448 177.1 445.8 186 443.1 190.5C442 192.5 441.2 194.6 441.5 195.1C441.9 195.6 446.9 196 452.8 196C464.3 196 469.6 194.5 473.5 190C476.6 186.6 476.5 177.4 473.1 129C471.4 105.1 469.6 77.8 469.1 68.4C468.7 59.1 467.8 50.5 467.2 49.3C466.5 48 466.4 46.2 466.9 44.4C468.4 39.4 471.2 33 471.9 33C472.6 33 482.3 58 484.6 65.7C486.1 70.7 485.1 71.2 481.3 67.4C479.9 66 478.5 65.1 478.2 65.5C477.9 65.8 479.1 87.3 480.9 113.3C484.4 162.7 484.5 174 481.5 185.5C477.9 199.2 471.4 208.5 463.4 211.6C457.6 213.8 443.4 212.9 433.6 209.6L426.7 207.2L419.1 211.3C413.1 214.6 410.5 215.4 406.4 215.4H401.3L400.7 225.5C399.5 244.6 396 253.1 385 263.2C370.9 276.2 351.9 287.6 338.2 291.1C330.3 293.1 326.6 293.3 321.1 292V292ZM433 188.9C438.1 185.9 442 181.9 442 179.9C442 176.8 438.1 167.4 436.1 165.6C433.6 163.3 431.7 164.3 425.1 171.5C419.1 178.2 418.1 180.9 420.7 184.3C422.4 186.6 427.9 191 429 191C429.3 191 431.1 190 433 188.9V188.9ZM339.8 82.4C340.2 79.4 337.7 76.6 335.2 77.4C332.4 78.3 332.4 81.5 335.2 83.4C337.9 85.3 339.4 85 339.8 82.4ZM201.3 287.1C200.7 284.4 199.1 280.1 197.8 277.4C195.8 273.2 195.1 272.5 192.9 272.8C191.2 272.9 189.6 272.2 188 270.5C185.7 268 185.7 267.9 187.3 264.5C189.4 260.1 191.8 260 195.9 264C198.9 267.1 203 276.3 203 280.2C203 284.3 204.6 280.6 206.4 272.5C208.3 264.2 211 258.6 213.5 257.6C216.8 256.4 220 259.6 220 264.3C220 267.6 219 268.3 216.9 266.4C214.6 264.3 211.8 265 210.3 268C209.7 269.4 208.2 274.8 207.1 280C204.5 291.9 202.9 293.8 201.3 287.1V287.1Z" fill="white"/>
<path d="M92 280.9C84.9 279.5 80 275.4 76 267.6L72.5 260.7V246.6C72.5 235 73 231.1 74.8 224.6C76.9 217.3 84.7 199 85.7 199C86.5 199 97 206.2 97.6 207.1C98.7 208.9 99.8 207.9 101.9 203C103.3 199.7 104.5 198.2 105.3 198.6C106 199 109.1 201.1 112.3 203.2C118.8 207.6 118.8 207.9 114.3 215.7L111.8 219.9L105.2 215.5L98.5 211L97.2 213.8C96.4 215.3 95.2 217.5 94.4 218.7L93 220.9L87.3 217C84.2 214.8 81.3 213 80.9 213C79.9 213 76 229.7 75.3 237.4C74.5 246.1 76.9 252.8 82.9 259C90.8 267.2 100.2 267.7 116.7 260.8C129.3 255.6 150.1 241.6 160.8 231.2C165.7 226.5 166 225.8 166 221.3C166 215 163.7 206.1 160 198.1C158.3 194.6 157 191.1 157 190.4C157 187.8 160.3 177 161.1 177C161.5 177 162.9 178.9 164.2 181.2C167 186.3 170 188 176 188C184 188 195 181.3 195 176.5C195 173.4 189.9 165.9 183.3 159.3C180.1 156.1 166.5 145 153.1 134.6L128.8 115.7L129.4 109.7C130.3 101.3 133 93.2999 135.9 90.2999C146.4 79.8999 203.2 51.8999 237.5 40.3999C244.7 37.9999 251.5 35.9999 252.8 35.9999C255.4 35.9999 255.6 34.5999 253.6 27.0999C252.3 22.1999 252.4 21.1999 254 16.3999C255.1 13.3999 256.3 10.1999 256.9 9.29989C258 7.19989 258.4 7.79989 266.1 28.3999C271.2 41.7999 272 45.5999 269.6 44.6999C268.5 44.2999 267.7 45.6999 266.4 49.6999C264.7 55.0999 264.7 56.4999 267.5 96.2999C270.4 139 270.4 149.3 267.5 160.5C264 173.8 256.5 184.7 249.3 187.1C244.6 188.6 235.3 187.6 229.6 184.9C227.1 183.8 221.6 179.8 217.4 176.2C201.5 162.4 195 157.5 195 159.3C195 159.4 195.9 161.9 197 164.8C201 175.4 198.9 186.5 191.4 194.9C185.3 201.7 180.9 204.3 175.6 204.2L171.3 204.1L170.6 213.1C169.1 233.4 166.3 240.9 156.5 250.4C135.9 270.5 107.6 283.9 92 280.9V280.9ZM250.6 170.5C253.3 169.7 256.9 167.9 258.5 166.6L261.5 164.2V149.8C261.4 134.2 257.1 69.9999 256 68.6999C255 67.4999 240.3 84.7999 236.6 91.4999L235 94.4999L235.6 91.4999C236.7 86.4999 243 75.8999 249.7 68.0999C256.3 60.2999 257.2 57.3999 255 51.5999C254.2 49.3999 253.7 49.1999 250.3 49.6999C231 52.4999 159.5 85.1999 137.3 101.4C135 103.1 133.1 104.7 133 105C133 105.3 135.6 106.8 138.8 108.4C160.8 119.1 186.8 135.7 208.5 153C224.9 166.1 228.7 168.4 236 170.4C243.1 172.3 244.6 172.3 250.6 170.5Z" fill="white"/>
<path d="M233.7 160.5C230.1 157 230.6 147.4 235 135.7C236.2 132.5 237.3 130 237.5 130.2C237.6 130.4 236.8 134.2 235.7 138.8C234.2 145.1 233.9 148 234.6 150.8C235.8 155.6 238.6 156.2 241.7 152.4L244 149.5L243 153C241.8 157.2 238.8 161.4 236.8 161.8C235.9 162 234.5 161.4 233.7 160.5V160.5ZM183.9 125.5C182.4 124.7 181 123.4 180.7 122.7C180.3 121.5 180.9 121.4 183.8 122.1C189.3 123.4 214 119.2 214 117C214 115.3 209.5 114.8 199.9 115.5C188.5 116.3 186 115.8 186 112.7C186 106.9 198.1 95 204 95C205.7 95 206.1 95.5 205.8 97.8C205.5 100.1 205.1 100.5 202.8 100.2C200 99.9 193.3 103.7 189.6 107.9C187 110.8 188.4 111.2 202 110.8L213.4 110.5L214.9 113.2C216.3 115.6 216.3 116.2 214.8 119.2C213.3 122.4 212.6 122.8 204.3 124.8C194.1 127.3 187.6 127.5 183.9 125.5V125.5ZM426.6 275.9C426.4 275.1 425.7 272.5 425 270C424.3 267.5 422.9 263.6 421.8 261.2C420 257.4 419.4 257 417.1 257.5C415.1 257.9 413.8 257.5 412.1 255.6L409.8 253.1L411.7 249.8C412.7 248 414.4 246.4 415.4 246.2C418.5 245.6 423.8 252.5 426.2 260.3L428.4 267.5L429.7 262C432.3 250.9 434 246.3 436.4 244.1C438.4 242.2 439.2 242 440.9 242.9C443.8 244.5 445.2 247.5 444.4 250.5C443.7 253.4 442.8 253.6 441 251.5C440.577 251.03 440.048 250.667 439.456 250.441C438.865 250.215 438.229 250.132 437.6 250.2C435.3 250.5 433.7 254.8 430.6 268.5C428.9 275.6 427.4 278.5 426.6 275.9ZM472.2 255.2C469.9 253.7 469 247.9 470 241.3C471 235.5 474.8 223.4 475.5 224.2C475.6 224.4 474.9 228.2 473.7 232.6C471.4 242.2 471.9 247.5 475.2 248.6C476.9 249.1 477.9 248.6 479.7 246.4L482 243.5L481 247C479.2 253.5 475.3 257.1 472.2 255.2ZM43.3 251.8C40.2 247.9 41.4 234.9 45.6 226.5C46.9 223.8 47.8 222.4 47.4 223.5C47.1 224.6 46.1 228.9 45.2 233.1C43.9 239.2 43.8 241.3 44.8 243.4C46.1 246.4 48.5 246.7 51.3 244.3C53.3 242.5 53.3 242.6 52.6 245.5C51.5 250.2 49.2 253 46.6 253C45.3 253 43.8 252.4 43.3 251.8V251.8ZM197.3 240.5C194.6 238.6 193.8 233.8 195 226.5C195.9 221.2 199.8 209.5 200.5 210.2C200.7 210.4 200 213.7 199 217.5C196.6 226.6 196.6 230.2 198.9 233.1L200.8 235.5L203.4 233.1C206.3 230.4 206.7 231.4 204.6 236.5C202.7 240.9 200 242.4 197.3 240.5V240.5ZM503.4 224.5C503.9 213.7 502.9 194 499 140C498 124.9 496.6 103.7 496 93C495.4 82.3 494.4 72 493.9 70.2C493 67.6 493.3 65.7 495 60.5C496.2 56.9 497.5 53.8 498 53.5C499.2 52.8 512 86 512 89.9C512 90.9 510.8 90.2 508.5 88C506.6 86.2 504.8 84.9 504.6 85.1C504.3 85.4 505.7 108.1 507.6 135.5C512.3 201.9 511.9 216.3 505 231.2L503 235.5L503.4 224.5V224.5ZM265.8 230.2C265.5 228.1 263.9 223.7 262.4 220.4C259.9 215.3 259.2 214.5 256.9 214.8C255.3 214.9 253.6 214.2 252.1 212.6C250 210.3 249.9 210.1 251.4 207.2C253.5 203 254.5 202.7 257.9 204.4C261.1 206.1 267 216.6 267 220.6C267 226 268.8 223.2 270.9 214.5C273.4 204.2 275.9 200 279.5 200C282.5 200 285.2 204.2 284.4 207.5C283.7 210.4 282.8 210.6 281 208.5C280.3 207.7 278.9 207 277.8 207C275.4 207 273.7 210.9 271.5 222C269 234.4 266.7 237.6 265.8 230.2V230.2ZM367.7 207.5C368 197.1 367.4 181.4 365.6 156C364.2 135.9 362.3 107.8 361.5 93.5C360.6 79.2 359.5 64.6 358.9 61C358.3 57.4 357.9 53.6 357.9 52.5C357.9 49.4 362.2 38.8 363.1 39.7C364.1 40.7 373.4 65 375.3 71.8C376.2 74.6 376.6 77 376.2 77C375.9 77 374.1 75.5 372.2 73.8L368.7 70.5L369.4 82.5C369.8 89.1 371.2 110.3 372.7 129.5C376 174.5 376.1 195.6 373.2 206.2C372 210.5 370.2 215.9 369.1 218.2L367.2 222.5L367.7 207.5V207.5ZM15.6 215.6C10 213.5 4.30001 207.5 1.90001 201C-1.99999 190.7 1.20001 172.5 10 155.1C13.5 148.1 13.5 148 11.5 148C9.20001 148 8.00001 144.6 8.00001 138.2C8.00001 132.4 10.9 121 13.1 118C14 116.8 14.1 116.9 13.5 118.5C11.5 124.5 10 134.3 10.8 137.3C11.9 141.6 15 142 18 138.3L20.2 135.5L19.5 138.5C19.1 140.2 17.9 143 16.9 144.8C15.8 146.7 12.5 155.5 9.50001 164.4C4.80001 178.2 4.00001 181.8 4.00001 187.9C4.00001 200.2 8.30001 204.7 19 203.7C27 203 31.1 200.6 45.7 187.9C52.7 181.8 62.3 174.1 67 170.7C77.1 163.3 94.4 154.3 100 153.4C102.2 153 104 152.5 104 152.1C104 151.8 102.7 147 101.1 141.5C99.5 136 97.7 128.1 97.1 124C96.4 119.9 95.4 115.3 94.9 113.9C94.1 111.8 94.3 110.2 96 106.1C97.3 103.3 98.5 101 98.9 101C100 101 112.3 122 111.7 122.7C111.3 123 109.8 122.8 108.4 122.1C106.9 121.5 105.5 121.1 105.3 121.4C104.7 122 107.6 134.5 109.7 140.5C110.5 142.7 112.3 145.7 113.8 147.3C116.9 150.6 124.9 155.2 130.2 157C132.3 157.6 134.4 158.8 134.8 159.6C135.5 160.9 134.3 172.7 133.4 173.8C133.3 174 130.2 173 126.6 171.6C117.8 168.1 106.7 167.2 98.3 169.3C85.5 172.6 75.9 178.6 51.6 198.2C29.7 215.9 24 218.6 15.6 215.6V215.6ZM284.9 163.4L278.2 158.8L281 152.6C282.6 149.3 284.4 146.6 285 146.8C285.7 146.9 288.9 148.9 292.2 151.1C297.2 154.5 298 155.5 297.4 157.3C296.8 159.2 292.1 168 291.7 168C291.6 168 288.5 165.9 284.9 163.4Z" fill="white"/>
<path d="M42.8 139.5C42.5 134 41 123.6 39.5 116.3C36.8 103.3 36.7 103.2 38.6 99.2999C39.8 96.8999 41.8 94.8999 44.3 93.6999C48.3 91.6999 48.4 89.9999 44.5 89.9999C43.1 89.9999 41.6 90.8999 41 92.0999C40.3 93.1999 39.6 93.9999 39.4 93.6999C38.5 92.7999 41 85.1999 42.6 83.4999C44.5 81.5999 43.8 77.8999 39.9 69.0999C37.4 63.4999 36.8 62.7999 34.7 63.3999C33.1 63.7999 31.6 63.1999 29.7 61.3999L26.9 58.7999L28.8 55.6999C29.8 53.8999 31.5 52.3999 32.7 52.1999C35.9 51.6999 41.4 58.8999 43.5 66.0999C44.4 69.4999 45.4 71.9999 45.6 71.6999C45.9 71.4999 47 67.4999 48.1 62.8999C50 54.6999 53.8 47.9999 56.4 47.9999C58.3 47.9999 62 52.3999 62 54.5999C62 55.5999 61.5 57.1999 61 57.9999C60.1 59.2999 59.8 59.2999 58.6 57.7999C57.2 55.8999 53.5 55.3999 52.5 56.8999C51.1 59.2999 46.1 81.4999 46.9 81.7999C49 82.4999 56 88.0999 56.9 89.7999C58.8 93.2999 55.1 97.3999 48.4 99.1999C38.6 102 38.7 101.9 41.6 113C44.4 123.6 45.8 140.5 44.3 146C43.5 149 43.3 148.2 42.8 139.5V139.5ZM420.9 134.2C419 132.7 416.3 130.8 414.9 129.9L412.5 128.3L415.4 122.1C417 118.8 418.7 116 419 116C419.4 116 422.5 118 426.1 120.5L432.5 124.9L435.1 119.9L437.6 114.9L444.1 119.2C447.6 121.6 450.6 124.2 450.8 125C450.9 125.8 449.7 128.8 448 131.7L445 136.9L438.4 132.4C434.8 129.8 431.7 127.9 431.6 128.1C431.4 128.3 430.3 130.4 429.1 132.8C427.9 135.1 426.4 137 425.7 136.9C425.1 136.9 422.9 135.7 420.9 134.2V134.2ZM67.6 133.8C64.7 129.6 65.7 119.7 70.2 108.2C73 101.1 73.4 102.1 70.9 110C68.5 117.8 68.6 126.7 71.2 128.4C72.5 129.2 73.5 128.9 75.5 127C78.4 124.3 78.4 124.4 76.9 129.1C74.6 135.9 70.5 138 67.6 133.8V133.8ZM387.5 116.3C388.1 115.7 393.9 112.1 400.5 108.3C412 101.5 425 92.4999 425 91.1999C425 90.8999 423.4 89.1999 421.5 87.3999C417.4 83.6999 417 80.3999 420 75.4999C422.6 71.2999 428.4 68.0999 430.8 69.5999C432.8 70.8999 433.5 76.3999 432.2 81.1999C431.4 84.0999 431.6 84.7999 433.8 86.5999C436.2 88.5999 436.3 88.8999 435.1 91.8999C433.6 95.3999 432.8 95.6999 431 93.4999C430.3 92.6999 429.5 91.9999 429.1 91.9999C428.7 91.9999 425.7 94.5999 422.4 97.7999C419.1 100.9 413.9 105 410.8 106.8C403 111.4 384.9 118.7 387.5 116.3ZM429 79.4999C429 75.4999 427.3 74.2999 424.1 75.9999C421.2 77.4999 421.5 79.6999 424.8 81.3999C428.7 83.5999 429 83.3999 429 79.4999ZM394.6 79.7999C391.7 75.6999 393 63.9999 397.4 53.7999C399.8 48.1999 400 49.1999 397.9 56.0999C396 62.0999 395.4 70.2999 396.6 73.3999C397.5 75.6999 401.7 75.3999 403 72.8999C404.7 69.7999 405.2 71.1999 403.9 75.0999C401.6 81.8999 397.5 83.9999 394.6 79.7999V79.7999ZM93 77.9999C91 75.9999 90.8 74.9999 91.2 67.5999C91.6 62.4999 92.6 57.2999 94 53.6999C95.3 50.5999 96.4 48.0999 96.6 48.2999C96.8 48.3999 96.2 51.2999 95.4 54.4999C93.4 61.9999 93.2 69.2999 94.9 71.3999C96.8 73.5999 97.7 73.3999 100.7 70.2999L103.3 67.4999L102.5 69.9999C101.2 74.4999 99.5 77.2999 97.3 78.6999C95.4 79.9999 94.9 79.8999 93 77.9999V77.9999ZM133 58.1999C133 53.4999 134.6 52.5999 168.3 40.1999C186.6 33.4999 201.8 27.9999 202.2 27.9999C202.6 27.9999 202.5 29.0999 201.9 30.3999C201.1 32.1999 197.9 33.7999 188.2 37.4999C178 41.2999 139.7 56.3999 134.3 58.6999C133.6 58.9999 133 58.6999 133 58.1999ZM431.6 50.3999C430.7 49.5999 430 47.4999 430 45.6999C430 41.0999 432.9 30.2999 436 23.3999C439.8 14.7999 443 13.1999 439.5 21.5999C438.1 25.0999 438.1 25.0999 442 28.9999C446.2 33.1999 446.8 35.2999 445.9 41.8999C444.8 49.6999 436 54.8999 431.6 50.3999V50.3999ZM441.1 43.2999C445.1 40.8999 444.7 38.4999 440 35.3999C435 32.0999 433.9 32.8999 433.2 39.8999C432.8 44.8999 432.8 44.9999 435.5 44.9999C437 44.9999 439.5 44.1999 441.1 43.2999ZM120.2 38.6999C119 34.6999 117 29.8999 115.9 28.0999C114.3 25.3999 113.7 24.9999 112.4 25.9999C111.2 26.9999 110.5 26.8999 108.7 25.3999C105.2 22.3999 105.1 21.8999 106.8 18.2999C108.8 14.1999 111.6 13.9999 115.3 17.7999C118.3 20.8999 121.9 28.4999 122 31.6999C122 36.7999 123.9 34.3999 125.5 27.1999C128.3 14.7999 131.5 10.0999 136 11.4999C138.7 12.3999 140.4 17.2999 139 19.9999L137.8 22.1999L135.9 20.0999C134.8 18.8999 133.5 17.9999 133 17.9999C131.1 17.9999 128.9 22.9999 127 31.9999C125.8 37.0999 124.4 42.2999 123.7 43.5999C122.5 45.7999 122.3 45.5999 120.2 38.6999V38.6999ZM218.2 34.6999C216.1 32.1999 216 28.2999 217.9 20.6999C220.4 11.1999 224.7 1.29994 226.7 0.599941C227.8 0.0999414 228 0.399941 227.5 1.69994C224.6 8.89994 224.6 8.99994 227.8 12.2999C233.1 17.9999 233.9 21.0999 231.9 28.2999C230.3 34.1999 221.3 38.3999 218.2 34.6999V34.6999ZM227.8 26.9999C229.5 25.8999 231 24.5999 231 24.0999C231 22.7999 223.9 16.9999 222.4 16.9999C220.2 16.9999 217.9 26.5999 219.7 28.2999C220.9 29.5999 224.5 28.9999 227.8 26.9999V26.9999ZM285.1 34.5999C282.1 30.9999 282.9 20.7999 287 9.69994C288.2 6.49994 289.3 3.99994 289.5 4.19994C289.7 4.39994 289 7.69994 287.9 11.4999C285.8 19.2999 285.5 24.1999 287 27.0999C288.4 29.6999 291.5 29.4999 293.4 26.7999C294.8 24.8999 295 24.7999 295 26.2999C295 28.4999 292.2 34.1999 290.6 35.1999C288.8 36.3999 286.3 36.0999 285.1 34.5999ZM328.8 26.7999C328.5 23.8999 327 20.1999 325.2 17.2999C323.1 13.9999 322.3 11.6999 322.7 10.1999C323.4 7.39994 323.8 7.39994 328.7 10.9999C335.4 15.8999 342.9 17.9999 353.9 17.9999C366 17.9999 373.8 16.0999 386.3 10.3999C392.2 7.69994 397.3 5.99994 398.8 6.19994C401.1 6.49994 401.5 6.99994 401.8 10.2999C402.1 14.1999 400.2 17.3999 390.9 27.9999L387.9 31.4999L389.5 28.0999C390.4 26.2999 393 22.7999 395.2 20.3999C399.4 15.8999 399.7 12.9999 396.2 12.9999C395.1 12.9999 391.3 14.2999 387.7 15.9999C374.7 21.8999 364.6 24.2999 352.5 24.2999C343.6 24.3999 340.5 23.9999 336.3 22.2999L331 20.1999L330.9 23.7999C330.9 25.8999 330.5 28.3999 330.1 29.4999C329.5 30.9999 329.2 30.2999 328.8 26.7999V26.7999Z" fill="white"/>
</svg>
