<svg width="17" height="24" viewBox="0 0 17 24" fill="none" xmlns="http://www.w3.org/2000/svg">
<path d="M8.304 14.946C9.24781 14.942 10.1517 14.5648 10.8183 13.8967C11.485 13.2286 11.8602 12.3238 11.862 11.38V3.566C11.8602 2.62219 11.485 1.71744 10.8183 1.04931C10.1517 0.381188 9.24781 0.00396048 8.304 0C7.35985 0.00343343 6.45543 0.380429 5.78837 1.04861C5.12132 1.7168 4.74584 2.62184 4.744 3.566V11.38C4.74584 12.3242 5.12132 13.2292 5.78837 13.8974C6.45543 14.5656 7.35985 14.9426 8.304 14.946V14.946ZM14.59 11.031C14.59 14.597 11.566 17.093 8.304 17.093C5.041 17.093 2.017 14.597 2.017 11.031H0C0 15.072 3.203 18.46 7.117 18.995V23.25H9.49V18.995C13.404 18.401 16.607 15.072 16.607 11.031H14.59V11.031Z" fill="#2CA4AB"/>
</svg>
