<svg width="24" height="24" viewBox="0 0 24 24" fill="none" xmlns="http://www.w3.org/2000/svg">
<path d="M23.5 21.466L16.49 14.456C17.6198 12.9037 18.2277 11.0329 18.226 9.113C18.226 4.088 14.138 0 9.113 0C4.088 0 0 4.088 0 9.113C0 14.138 4.088 18.226 9.113 18.226C11.0328 18.228 12.9036 17.6205 14.456 16.491L21.466 23.5L23.5 21.466ZM9.113 15.348C7.87955 15.3482 6.67375 14.9826 5.64809 14.2975C4.62243 13.6123 3.82299 12.6384 3.35088 11.4989C2.87877 10.3594 2.75519 9.10542 2.99577 7.89566C3.23636 6.6859 3.8303 5.57466 4.70248 4.70248C5.57466 3.8303 6.6859 3.23636 7.89566 2.99577C9.10542 2.75519 10.3594 2.87877 11.4989 3.35088C12.6384 3.82299 13.6123 4.62243 14.2975 5.64809C14.9826 6.67375 15.3482 7.87955 15.348 9.113C15.3459 10.766 14.6883 12.3506 13.5195 13.5195C12.3506 14.6883 10.766 15.3459 9.113 15.348V15.348Z" fill="black"/>
</svg>
